<svg width="500" height="325" viewBox="0 0 500 325" fill="none" xmlns="http://www.w3.org/2000/svg">
<rect width="500" height="325" fill="#CCCCCC"/>
<path d="M146.461 172L150.891 171.625C151.219 173.781 151.977 175.406 153.164 176.5C154.367 177.578 155.812 178.117 157.5 178.117C159.531 178.117 161.25 177.352 162.656 175.82C164.062 174.289 164.766 172.258 164.766 169.727C164.766 167.32 164.086 165.422 162.727 164.031C161.383 162.641 159.617 161.945 157.43 161.945C156.07 161.945 154.844 162.258 153.75 162.883C152.656 163.492 151.797 164.289 151.172 165.273L147.211 164.758L150.539 147.109H167.625V151.141H153.914L152.062 160.375C154.125 158.938 156.289 158.219 158.555 158.219C161.555 158.219 164.086 159.258 166.148 161.336C168.211 163.414 169.242 166.086 169.242 169.352C169.242 172.461 168.336 175.148 166.523 177.414C164.32 180.195 161.312 181.586 157.5 181.586C154.375 181.586 151.82 180.711 149.836 178.961C147.867 177.211 146.742 174.891 146.461 172ZM173.18 164.055C173.18 159.992 173.594 156.727 174.422 154.258C175.266 151.773 176.508 149.859 178.148 148.516C179.805 147.172 181.883 146.5 184.383 146.5C186.227 146.5 187.844 146.875 189.234 147.625C190.625 148.359 191.773 149.43 192.68 150.836C193.586 152.227 194.297 153.93 194.812 155.945C195.328 157.945 195.586 160.648 195.586 164.055C195.586 168.086 195.172 171.344 194.344 173.828C193.516 176.297 192.273 178.211 190.617 179.57C188.977 180.914 186.898 181.586 184.383 181.586C181.07 181.586 178.469 180.398 176.578 178.023C174.312 175.164 173.18 170.508 173.18 164.055ZM177.516 164.055C177.516 169.695 178.172 173.453 179.484 175.328C180.812 177.188 182.445 178.117 184.383 178.117C186.32 178.117 187.945 177.18 189.258 175.305C190.586 173.43 191.25 169.68 191.25 164.055C191.25 158.398 190.586 154.641 189.258 152.781C187.945 150.922 186.305 149.992 184.336 149.992C182.398 149.992 180.852 150.812 179.695 152.453C178.242 154.547 177.516 158.414 177.516 164.055ZM199.898 164.055C199.898 159.992 200.312 156.727 201.141 154.258C201.984 151.773 203.227 149.859 204.867 148.516C206.523 147.172 208.602 146.5 211.102 146.5C212.945 146.5 214.562 146.875 215.953 147.625C217.344 148.359 218.492 149.43 219.398 150.836C220.305 152.227 221.016 153.93 221.531 155.945C222.047 157.945 222.305 160.648 222.305 164.055C222.305 168.086 221.891 171.344 221.062 173.828C220.234 176.297 218.992 178.211 217.336 179.57C215.695 180.914 213.617 181.586 211.102 181.586C207.789 181.586 205.188 180.398 203.297 178.023C201.031 175.164 199.898 170.508 199.898 164.055ZM204.234 164.055C204.234 169.695 204.891 173.453 206.203 175.328C207.531 177.188 209.164 178.117 211.102 178.117C213.039 178.117 214.664 177.18 215.977 175.305C217.305 173.43 217.969 169.68 217.969 164.055C217.969 158.398 217.305 154.641 215.977 152.781C214.664 150.922 213.023 149.992 211.055 149.992C209.117 149.992 207.57 150.812 206.414 152.453C204.961 154.547 204.234 158.414 204.234 164.055ZM241.758 171.414L249.141 164.031L241.781 156.672L244.641 153.812L252 161.172L259.336 153.836L262.148 156.672L254.836 164.008L262.195 171.367L259.336 174.227L251.977 166.867L244.594 174.25L241.758 171.414ZM281.391 171.93L285.609 171.367C286.094 173.758 286.914 175.484 288.07 176.547C289.242 177.594 290.664 178.117 292.336 178.117C294.32 178.117 295.992 177.43 297.352 176.055C298.727 174.68 299.414 172.977 299.414 170.945C299.414 169.008 298.781 167.414 297.516 166.164C296.25 164.898 294.641 164.266 292.688 164.266C291.891 164.266 290.898 164.422 289.711 164.734L290.18 161.031C290.461 161.062 290.688 161.078 290.859 161.078C292.656 161.078 294.273 160.609 295.711 159.672C297.148 158.734 297.867 157.289 297.867 155.336C297.867 153.789 297.344 152.508 296.297 151.492C295.25 150.477 293.898 149.969 292.242 149.969C290.602 149.969 289.234 150.484 288.141 151.516C287.047 152.547 286.344 154.094 286.031 156.156L281.812 155.406C282.328 152.578 283.5 150.391 285.328 148.844C287.156 147.281 289.43 146.5 292.148 146.5C294.023 146.5 295.75 146.906 297.328 147.719C298.906 148.516 300.109 149.609 300.938 151C301.781 152.391 302.203 153.867 302.203 155.43C302.203 156.914 301.805 158.266 301.008 159.484C300.211 160.703 299.031 161.672 297.469 162.391C299.5 162.859 301.078 163.836 302.203 165.32C303.328 166.789 303.891 168.633 303.891 170.852C303.891 173.852 302.797 176.398 300.609 178.492C298.422 180.57 295.656 181.609 292.312 181.609C289.297 181.609 286.789 180.711 284.789 178.914C282.805 177.117 281.672 174.789 281.391 171.93ZM330.258 176.945V181H307.547C307.516 179.984 307.68 179.008 308.039 178.07C308.617 176.523 309.539 175 310.805 173.5C312.086 172 313.93 170.266 316.336 168.297C320.07 165.234 322.594 162.812 323.906 161.031C325.219 159.234 325.875 157.539 325.875 155.945C325.875 154.273 325.273 152.867 324.07 151.727C322.883 150.57 321.328 149.992 319.406 149.992C317.375 149.992 315.75 150.602 314.531 151.82C313.312 153.039 312.695 154.727 312.68 156.883L308.344 156.438C308.641 153.203 309.758 150.742 311.695 149.055C313.633 147.352 316.234 146.5 319.5 146.5C322.797 146.5 325.406 147.414 327.328 149.242C329.25 151.07 330.211 153.336 330.211 156.039C330.211 157.414 329.93 158.766 329.367 160.094C328.805 161.422 327.867 162.82 326.555 164.289C325.258 165.758 323.094 167.773 320.062 170.336C317.531 172.461 315.906 173.906 315.188 174.672C314.469 175.422 313.875 176.18 313.406 176.945H330.258ZM334.805 172L339.234 171.625C339.562 173.781 340.32 175.406 341.508 176.5C342.711 177.578 344.156 178.117 345.844 178.117C347.875 178.117 349.594 177.352 351 175.82C352.406 174.289 353.109 172.258 353.109 169.727C353.109 167.32 352.43 165.422 351.07 164.031C349.727 162.641 347.961 161.945 345.773 161.945C344.414 161.945 343.188 162.258 342.094 162.883C341 163.492 340.141 164.289 339.516 165.273L335.555 164.758L338.883 147.109H355.969V151.141H342.258L340.406 160.375C342.469 158.938 344.633 158.219 346.898 158.219C349.898 158.219 352.43 159.258 354.492 161.336C356.555 163.414 357.586 166.086 357.586 169.352C357.586 172.461 356.68 175.148 354.867 177.414C352.664 180.195 349.656 181.586 345.844 181.586C342.719 181.586 340.164 180.711 338.18 178.961C336.211 177.211 335.086 174.891 334.805 172Z" fill="#9D9D9D"/>
</svg>
